<svg width="146" height="150" viewBox="0 0 146 150" fill="none" xmlns="http://www.w3.org/2000/svg">
<path d="M100.253 64.7736C100.253 61.6355 97.7088 59.0918 94.5708 59.0918H36.048C32.91 59.0918 30.3662 61.6355 30.3662 64.7736C30.3662 67.9117 32.91 70.4554 36.048 70.4554H94.5708C97.7088 70.4554 100.253 67.9117 100.253 64.7736Z" fill="white"/>
<path d="M36.048 81.8184C32.91 81.8184 30.3662 84.3621 30.3662 87.5002C30.3662 90.6382 32.91 93.182 36.048 93.182H71.5909C74.729 93.182 77.2727 90.6382 77.2727 87.5002C77.2727 84.3621 74.729 81.8184 71.5909 81.8184H36.048Z" fill="white"/>
<path d="M49.4002 136.364H30.3977C24.1318 136.364 19.034 131.267 19.034 125.001V25.0007C19.034 18.7348 24.1318 13.6371 30.3977 13.6371H100.253C106.518 13.6371 111.616 18.7348 111.616 25.0007V59.9439C111.616 63.082 114.16 65.6257 117.298 65.6257C120.436 65.6257 122.98 63.082 122.98 59.9439V25.0007C122.98 12.4689 112.784 2.27344 100.253 2.27344H30.3977C17.8659 2.27344 7.67041 12.4689 7.67041 25.0007V125.001C7.67041 137.533 17.8659 147.728 30.3977 147.728H49.4002C52.5383 147.728 55.0821 145.184 55.0821 142.046C55.0821 138.908 52.5383 136.364 49.4002 136.364Z" fill="white"/>
<path d="M133.044 84.5379C126.398 77.8919 115.584 77.8916 108.942 84.5334L77.7483 115.658C77.0858 116.319 76.5972 117.134 76.325 118.029L69.5316 140.394C68.9293 142.377 69.454 144.53 70.9012 146.013C71.9853 147.125 73.458 147.728 74.9685 147.728C75.4739 147.728 75.9841 147.66 76.485 147.521L99.4182 141.169C100.362 140.907 101.222 140.406 101.915 139.714L133.044 108.644C139.69 101.998 139.69 91.1845 133.044 84.5379ZM94.9449 130.616L83.4074 133.812L86.7839 122.696L107.832 101.695L115.869 109.732L94.9449 130.616ZM125.013 100.606L123.912 101.704L115.876 93.6686L116.974 92.5737C119.189 90.3584 122.794 90.3584 125.009 92.5737C127.224 94.7891 127.224 98.3936 125.013 100.606Z" fill="white"/>
<path d="M94.5708 36.3652H36.048C32.91 36.3652 30.3662 38.909 30.3662 42.0471C30.3662 45.1851 32.91 47.7289 36.048 47.7289H94.5708C97.7088 47.7289 100.253 45.1851 100.253 42.0471C100.253 38.909 97.7088 36.3652 94.5708 36.3652Z" fill="white"/>
</svg>
