<svg width="150" height="150" viewBox="0 0 150 150" fill="none" xmlns="http://www.w3.org/2000/svg">
<path d="M123.325 34.6425L97.1173 10.0554C94.3298 7.44011 90.6812 6 86.844 6H36.9487C28.706 6 22 12.6501 22 20.8242V129.176C22 137.35 28.706 144 36.9487 144H113.051C121.294 144 128 137.35 128 129.176V45.4114C128 41.3552 126.296 37.43 123.325 34.6425V34.6425ZM115.405 38.3438H95.1128C94.3635 38.3438 93.7538 37.7392 93.7538 36.9961V18.0308L115.405 38.3438ZM113.051 135.914H36.9487C33.202 135.914 30.1538 132.891 30.1538 129.176V20.8242C30.1538 17.1087 33.202 14.0859 36.9487 14.0859H85.6V36.9961C85.6 42.1978 89.8675 46.4297 95.1128 46.4297H119.846V129.176C119.846 132.891 116.798 135.914 113.051 135.914Z" fill="white"/>
<path d="M106.348 58.5938H41.8945C39.4676 58.5938 37.5 60.5613 37.5 62.9883C37.5 65.4152 39.4676 67.3828 41.8945 67.3828H106.348C108.775 67.3828 110.742 65.4152 110.742 62.9883C110.742 60.5613 108.775 58.5938 106.348 58.5938Z" fill="white"/>
<path d="M106.348 82.0312H41.8945C39.4676 82.0312 37.5 83.9988 37.5 86.4258C37.5 88.8527 39.4676 90.8203 41.8945 90.8203H106.348C108.775 90.8203 110.742 88.8527 110.742 86.4258C110.742 83.9988 108.775 82.0312 106.348 82.0312Z" fill="white"/>
<path d="M63.1992 105.469H41.8945C39.4676 105.469 37.5 107.436 37.5 109.863C37.5 112.29 39.4676 114.258 41.8945 114.258H63.1992C65.6262 114.258 67.5938 112.29 67.5938 109.863C67.5938 107.436 65.6262 105.469 63.1992 105.469Z" fill="white"/>
</svg>
