<svg width="150" height="150" viewBox="0 0 150 150" fill="none" xmlns="http://www.w3.org/2000/svg">
<path d="M50 68.75H31.25C20.625 68.75 12.5 60.625 12.5 50V31.25C12.5 20.625 20.625 12.5 31.25 12.5H50C60.625 12.5 68.75 20.625 68.75 31.25V50C68.75 60 60 68.75 50 68.75ZM31.25 21.875C26.25 21.875 21.875 26.25 21.875 31.25V50C21.875 55 26.25 59.375 31.25 59.375H50C55 59.375 59.375 55 59.375 50V31.25C59.375 26.25 55 21.875 50 21.875H31.25Z" fill="white"/>
<path d="M40.625 137.5C25 137.5 12.5 125 12.5 109.375C12.5 93.75 25 81.25 40.625 81.25C56.25 81.25 68.75 93.75 68.75 109.375C68.75 125 55.625 137.5 40.625 137.5ZM40.625 90.625C30.625 90.625 21.875 98.75 21.875 109.375C21.875 120 30 128.125 40.625 128.125C51.25 128.125 59.375 120 59.375 109.375C59.375 98.75 50.625 90.625 40.625 90.625Z" fill="white"/>
<path d="M109.375 68.75C93.75 68.75 81.25 56.25 81.25 40.625C81.25 25 93.75 12.5 109.375 12.5C125 12.5 137.5 25 137.5 40.625C137.5 56.25 125 68.75 109.375 68.75ZM109.375 21.875C99.375 21.875 90.625 30 90.625 40.625C90.625 51.25 98.75 59.375 109.375 59.375C120 59.375 128.125 51.25 128.125 40.625C128.125 30 120 21.875 109.375 21.875Z" fill="white"/>
<path d="M118.75 137.5H100C89.375 137.5 81.25 129.375 81.25 118.75V100C81.25 89.375 89.375 81.25 100 81.25H118.75C129.375 81.25 137.5 89.375 137.5 100V118.75C137.5 129.375 129.375 137.5 118.75 137.5ZM100 90.625C95 90.625 90.625 95 90.625 100V118.75C90.625 123.75 95 128.125 100 128.125H118.75C123.75 128.125 128.125 123.75 128.125 118.75V100C128.125 95 123.75 90.625 118.75 90.625H100Z" fill="white"/>
</svg>
