<svg width="150" height="150" viewBox="0 0 150 150" fill="none" xmlns="http://www.w3.org/2000/svg">
<path d="M75.0003 69.6432C81.3575 69.6432 87.572 67.758 92.8579 64.2261C98.1438 60.6942 102.264 55.6742 104.696 49.8008C107.129 43.9275 107.766 37.4646 106.526 31.2295C105.285 24.9944 102.224 19.2671 97.7287 14.7719C93.2335 10.2766 87.5061 7.21529 81.271 5.97505C75.0359 4.73481 68.5731 5.37135 62.6997 7.80417C56.8264 10.237 51.8064 14.3568 48.2745 19.6427C44.7426 24.9285 42.8574 31.143 42.8574 37.5003C42.8659 46.0225 46.2551 54.1932 52.2812 60.2193C58.3074 66.2454 66.4781 69.6346 75.0003 69.6432ZM75.0003 16.0717C79.2385 16.0717 83.3814 17.3285 86.9054 19.6831C90.4293 22.0377 93.1758 25.3844 94.7977 29.2999C96.4196 33.2155 96.8439 37.5241 96.0171 41.6808C95.1903 45.8375 93.1494 49.6557 90.1526 52.6526C87.1557 55.6494 83.3375 57.6903 79.1808 58.5171C75.0241 59.344 70.7155 58.9196 66.7999 57.2977C62.8844 55.6758 59.5377 52.9293 57.1831 49.4054C54.8285 45.8815 53.5717 41.7385 53.5717 37.5003C53.5717 31.8171 55.8294 26.3666 59.848 22.348C63.8666 18.3294 69.3171 16.0717 75.0003 16.0717V16.0717Z" fill="white"/>
<path d="M90.4448 80.3574H59.5555C49.4466 80.3702 39.7555 84.3919 32.608 91.5405C25.4604 98.689 21.4401 108.381 21.4287 118.49C21.4358 125.424 24.1935 132.072 29.0967 136.975C34 141.878 40.6481 144.636 47.5823 144.643H102.413C109.348 144.636 115.998 141.878 120.902 136.974C125.806 132.069 128.564 125.42 128.572 118.484C128.56 108.376 124.54 98.6847 117.392 91.537C110.244 84.3893 100.553 80.3688 90.4448 80.3574V80.3574ZM102.413 133.929H47.5823C43.4883 133.923 39.5638 132.294 36.6694 129.399C33.7751 126.503 32.1472 122.578 32.143 118.484C32.1501 111.216 35.0405 104.248 40.1798 99.1085C45.3191 93.9692 52.2874 91.0788 59.5555 91.0717H90.4448C97.7129 91.0816 104.68 93.9737 109.819 99.1135C114.958 104.253 117.849 111.221 117.857 118.49C117.852 122.584 116.222 126.508 113.327 129.402C110.432 132.297 106.507 133.925 102.413 133.929V133.929Z" fill="white"/>
</svg>
